<?xml version="1.0" encoding="UTF-8" standalone="no"?>
<!-- Created with Inkscape (http://www.inkscape.org/) -->
<svg xmlns="http://www.w3.org/2000/svg" version="1.1" width="400.76819" height="197.65067" id="svg4223">
  <defs id="defs4225"/>
  <g transform="translate(-196.75877,-427.82257)" id="layer1">
    <path d="m 573.71631,518.43256 c 0,2.90159 3.39834,2.90159 9.32374,2.90159 l 1.89235,0 0,3.78075 c -5.92541,-0.12616 -11.85081,-0.50463 -17.77227,-0.50463 -5.29462,0 -10.45914,0.37847 -15.75377,0.50463 l 0,-3.78075 1.26157,0 c 4.28537,0 6.93071,-0.50462 6.93071,-3.28006 l 0,-34.27903 c 0,-4.15921 -0.75694,-5.42078 -3.90691,-5.9254 -1.38377,-0.25231 -2.64533,-0.50068 -4.03305,-0.75694 l 0,-3.02381 c 6.67839,-1.25762 13.48689,-4.15921 20.66991,-7.43533 l 1.38772,0.75299 0,8.70084 0.24837,0 c 2.27082,-3.65853 7.94391,-9.45383 14.49615,-9.45383 4.28537,0 8.06612,2.01455 8.06612,7.43533 0,4.79 -3.14997,7.43534 -7.05687,7.43534 -4.91615,0 -4.91615,-4.78606 -8.82306,-4.78606 -3.02775,0 -6.93071,2.39303 -6.93071,8.5668 l 0,33.14757 z m 0,0 c 0,2.90159 3.39834,2.90159 9.32374,2.90159 l 1.89235,0 0,3.78075 c -5.92541,-0.12616 -11.85081,-0.50463 -17.77227,-0.50463 -5.29462,0 -10.45914,0.37847 -15.75377,0.50463 l 0,-3.78075 1.26157,0 c 4.28537,0 6.93071,-0.50462 6.93071,-3.28006 l 0,-34.27903 c 0,-4.15921 -0.75694,-5.42078 -3.90691,-5.9254 -1.38377,-0.25231 -2.64533,-0.50068 -4.03305,-0.75694 l 0,-3.02381 c 6.67839,-1.25762 13.48689,-4.15921 20.66991,-7.43533 l 1.38772,0.75299 0,8.70084 0.24837,0 c 2.27082,-3.65853 7.94391,-9.45383 14.49615,-9.45383 4.28537,0 8.06612,2.01455 8.06612,7.43533 0,4.79 -3.14997,7.43534 -7.05687,7.43534 -4.91615,0 -4.91615,-4.78606 -8.82306,-4.78606 -3.02775,0 -6.93071,2.39303 -6.93071,8.5668 l 0,33.14757 z m -43.73566,-32.13792 c 6.8085,0 7.81775,-0.12616 7.81775,-4.66384 0,-4.78606 -3.14997,-10.46309 -8.82306,-10.46309 -7.68765,0 -11.97302,7.31312 -13.36074,15.12693 l 14.36605,0 z m 21.93148,24.95529 c -5.04231,8.82305 -13.61305,15.75377 -24.19835,15.75377 -15.87992,0 -24.45067,-14.61836 -24.45067,-28.98835 0,-15.87993 10.71146,-31.38138 27.85295,-31.38138 12.98227,0 20.03913,9.57605 19.79076,22.0537 l -1.51387,1.38772 -34.03066,0 c 0,12.85611 5.9254,25.58607 19.53451,25.58607 6.05156,0 10.96772,-2.27082 14.99683,-6.8085 l 2.0185,2.39697 z m -21.93148,-24.95529 c 6.8085,0 7.81775,-0.12616 7.81775,-4.66384 0,-4.78606 -3.14997,-10.46309 -8.82306,-10.46309 -7.68765,0 -11.97302,7.31312 -13.36074,15.12693 l 14.36605,0 z m 21.93148,24.95529 c -5.04231,8.82305 -13.61305,15.75377 -24.19835,15.75377 -15.87992,0 -24.45067,-14.61836 -24.45067,-28.98835 0,-15.87993 10.71146,-31.38138 27.85295,-31.38138 12.98227,0 20.03913,9.57605 19.79076,22.0537 l -1.51387,1.38772 -34.03066,0 c 0,12.85611 5.9254,25.58607 19.53451,25.58607 6.05156,0 10.96772,-2.27082 14.99683,-6.8085 l 2.0185,2.39697 z m -53.56395,-35.66793 -15.00077,0 0,34.53134 c 0,5.29462 3.15391,6.8085 6.68234,6.8085 3.14997,0 5.04231,-0.75694 7.43534,-2.27082 l 1.63609,2.14466 c -4.6599,6.04762 -9.95058,10.21077 -17.13754,10.21077 -9.58,0 -12.72996,-6.05155 -12.72996,-12.98621 l 0,-38.43824 -7.56149,0 0,-3.02775 c 6.80455,-3.65065 14.4922,-10.83761 20.16529,-18.02064 l 1.50993,0.75694 0,13.23458 15.00077,0 0,7.05687 z m 0,0 -15.00077,0 0,34.53134 c 0,5.29462 3.15391,6.8085 6.68234,6.8085 3.14997,0 5.04231,-0.75694 7.43534,-2.27082 l 1.63609,2.14466 c -4.6599,6.04762 -9.95058,10.21077 -17.13754,10.21077 -9.58,0 -12.72996,-6.05155 -12.72996,-12.98621 l 0,-38.43824 -7.56149,0 0,-3.02775 c 6.80455,-3.65065 14.4922,-10.83761 20.16529,-18.02064 l 1.50993,0.75694 0,13.23458 15.00077,0 0,7.05687 z m -46.25323,8.06572 c -0.63079,-7.05686 -3.27613,-12.47764 -11.34224,-12.47764 -4.28537,0 -8.57469,2.64534 -8.57469,7.56149 0,13.73921 26.0907,10.58924 26.0907,29.74529 0,13.61305 -10.96377,18.5292 -21.42292,18.5292 -6.05155,0 -10.58924,-1.76619 -14.87067,-3.28006 l -1.13935,-13.98758 3.53238,-0.75694 c 0.75299,6.93071 4.91221,13.4869 12.34755,13.4869 4.91615,0 9.45383,-2.77544 9.45383,-8.32238 0,-12.09917 -25.33376,-10.08067 -25.33376,-29.48903 0,-11.09387 8.57075,-18.02063 20.16924,-18.02063 5.66915,0 10.08068,1.25762 14.87067,3.01986 -0.37847,4.53769 -0.63078,8.95316 -0.25231,13.36074 l -3.52843,0.63078 z m 0,0 c -0.63079,-7.05686 -3.27613,-12.47764 -11.34224,-12.47764 -4.28537,0 -8.57469,2.64534 -8.57469,7.56149 0,13.73921 26.0907,10.58924 26.0907,29.74529 0,13.61305 -10.96377,18.5292 -21.42292,18.5292 -6.05155,0 -10.58924,-1.76619 -14.87067,-3.28006 l -1.13935,-13.98758 3.53238,-0.75694 c 0.75299,6.93071 4.91221,13.4869 12.34755,13.4869 4.91615,0 9.45383,-2.77544 9.45383,-8.32238 0,-12.09917 -25.33376,-10.08067 -25.33376,-29.48903 0,-11.09387 8.57075,-18.02063 20.16924,-18.02063 5.66915,0 10.08068,1.25762 14.87067,3.01986 -0.37847,4.53769 -0.63078,8.95316 -0.25231,13.36074 l -3.52843,0.63078 z m -79.65389,29.74292 c 1.51387,2.9016 6.6784,9.07537 12.97833,9.07537 11.97696,0 14.49614,-12.35149 14.49614,-22.05369 0,-11.09387 -5.29462,-25.21155 -17.26764,-25.21155 -4.15922,0 -7.30918,1.64397 -10.20683,3.53238 l 0,34.65749 z m -14.11768,-70.57655 c -2.89765,-1.13541 -5.66915,-2.14466 -8.44459,-3.02775 l 0,-2.14072 c 7.05687,-2.39697 14.36605,-5.16846 21.04839,-8.82305 l 1.51388,1.00925 0,44.86827 c 6.17377,-4.66384 10.96377,-8.06612 18.90373,-8.06612 15.62761,0 23.94998,12.47765 23.94998,27.72679 0,19.53451 -14.36999,32.64294 -31.63763,32.64294 -7.56543,0 -14.49615,-2.01456 -18.15074,-4.79 -1.76224,1.13541 -4.02911,2.89765 -5.66914,4.79 l -2.01456,-1.26157 c 0.37452,-3.52843 0.50068,-6.93071 0.50068,-10.45914 l 0,-72.4689 z m 14.11768,70.57655 c 1.51387,2.9016 6.6784,9.07537 12.97833,9.07537 11.97696,0 14.49614,-12.35149 14.49614,-22.05369 0,-11.09387 -5.29462,-25.21155 -17.26764,-25.21155 -4.15922,0 -7.30918,1.64397 -10.20683,3.53238 l 0,34.65749 z m -14.11768,-70.57655 c -2.89765,-1.13541 -5.66915,-2.14466 -8.44459,-3.02775 l 0,-2.14072 c 7.05687,-2.39697 14.36605,-5.16846 21.04839,-8.82305 l 1.51388,1.00925 0,44.86827 c 6.17377,-4.66384 10.96377,-8.06612 18.90373,-8.06612 15.62761,0 23.94998,12.47765 23.94998,27.72679 0,19.53451 -14.36999,32.64294 -31.63763,32.64294 -7.56543,0 -14.49615,-2.01456 -18.15074,-4.79 -1.76224,1.13541 -4.02911,2.89765 -5.66914,4.79 l -2.01456,-1.26157 c 0.37452,-3.52843 0.50068,-6.93071 0.50068,-10.45914 l 0,-72.4689 z m -27.72522,43.48055 c 6.80456,0 7.81381,-0.12616 7.81381,-4.66384 0,-4.78606 -3.15391,-10.46309 -8.82306,-10.46309 -7.68764,0 -11.97302,7.31312 -13.36074,15.12693 l 14.36999,0 z m 21.92754,24.95529 c -5.03836,8.82305 -13.60911,15.75377 -24.19835,15.75377 -15.87992,0 -24.44672,-14.61836 -24.44672,-28.98835 0,-15.87993 10.70751,-31.38138 27.85294,-31.38138 12.97833,0 20.03914,9.57605 19.78683,22.0537 l -1.50994,1.38772 -34.03066,0 c 0,12.85611 5.92147,25.58607 19.53452,25.58607 6.04761,0 10.96377,-2.27082 14.99683,-6.8085 l 2.01455,2.39697 z m -21.92754,-24.95529 c 6.80456,0 7.81381,-0.12616 7.81381,-4.66384 0,-4.78606 -3.15391,-10.46309 -8.82306,-10.46309 -7.68764,0 -11.97302,7.31312 -13.36074,15.12693 l 14.36999,0 z m 21.92754,24.95529 c -5.03836,8.82305 -13.60911,15.75377 -24.19835,15.75377 -15.87992,0 -24.44672,-14.61836 -24.44672,-28.98835 0,-15.87993 10.70751,-31.38138 27.85294,-31.38138 12.97833,0 20.03914,9.57605 19.78683,22.0537 l -1.50994,1.38772 -34.03066,0 c 0,12.85611 5.92147,25.58607 19.53452,25.58607 6.04761,0 10.96377,-2.27082 14.99683,-6.8085 l 2.01455,2.39697 z m -78.89575,-61.25246 c 0.88309,-2.39697 1.64003,-4.03306 1.64003,-5.29463 0,-3.14996 -2.89765,-3.78074 -7.06081,-3.78074 -3.40228,0 -6.17378,0.63078 -6.17378,3.14996 0,1.89235 1.00531,3.65459 2.01456,6.04762 l 4.79,11.22002 0.25231,0 4.53769,-11.34223 z m -10.33693,37.55909 -16.63686,39.44749 -4.28143,0 -31.76379,-74.86587 c -2.51918,-5.92146 -4.15922,-11.21608 -10.96377,-11.21608 l -1.8884,0 0,-3.78075 c 4.78605,0 12.09523,0.50463 18.14679,0.50463 5.29462,0 11.84686,-0.50463 15.87992,-0.50463 l 0,3.78075 -1.1354,0 c -2.89766,0 -5.41684,0.50462 -5.41684,2.89765 0,1.64003 1.13147,5.42078 4.28537,12.98227 l 20.66992,48.52286 10.20683,-24.57682 -15.75376,-36.42369 c -1.26157,-2.89765 -4.41153,-3.40227 -7.68765,-3.40227 l 0,-3.78075 c 5.92146,0 11.84686,0.50463 17.77226,0.50463 4.6599,0 9.19759,-0.50463 13.86143,-0.50463 4.03306,0 8.06611,0.50463 12.09917,0.50463 3.78075,0 7.5615,-0.50463 11.34224,-0.50463 l 0,3.78075 -1.76224,0 c -6.30388,0 -7.81381,2.39697 -10.96772,9.57999 l -7.43533,17.26764 15.50145,36.54984 19.40836,-52.93439 c 0.76088,-2.14465 1.89234,-5.29462 1.89234,-6.93465 0,-2.77149 -2.26687,-3.52843 -7.56149,-3.52843 l -1.50993,0 0,-3.78075 c 4.15527,0 8.31843,0.50463 12.47764,0.50463 3.78075,0 7.43534,-0.50463 11.21609,-0.50463 l 0,3.78075 -1.51388,0 c -3.78075,0 -5.92146,4.28537 -7.43534,8.19227 l -29.74528,77.88968 -4.41153,0 -16.88917,-39.44749 z m 10.33693,-37.55909 c 0.88309,-2.39697 1.64003,-4.03306 1.64003,-5.29463 0,-3.14996 -2.89765,-3.78074 -7.06081,-3.78074 -3.40228,0 -6.17378,0.63078 -6.17378,3.14996 0,1.89235 1.00531,3.65459 2.01456,6.04762 l 4.79,11.22002 0.25231,0 4.53769,-11.34223 z m -10.33693,37.55909 -16.63686,39.44749 -4.28143,0 -31.76379,-74.86587 c -2.51918,-5.92146 -4.15922,-11.21608 -10.96377,-11.21608 l -1.8884,0 0,-3.78075 c 4.78605,0 12.09523,0.50463 18.14679,0.50463 5.29462,0 11.84686,-0.50463 15.87992,-0.50463 l 0,3.78075 -1.1354,0 c -2.89766,0 -5.41684,0.50462 -5.41684,2.89765 0,1.64003 1.13147,5.42078 4.28537,12.98227 l 20.66992,48.52286 10.20683,-24.57682 -15.75376,-36.42369 c -1.26157,-2.89765 -4.41153,-3.40227 -7.68765,-3.40227 l 0,-3.78075 c 5.92146,0 11.84686,0.50463 17.77226,0.50463 4.6599,0 9.19759,-0.50463 13.86143,-0.50463 4.03306,0 8.06611,0.50463 12.09917,0.50463 3.78075,0 7.5615,-0.50463 11.34224,-0.50463 l 0,3.78075 -1.76224,0 c -6.30388,0 -7.81381,2.39697 -10.96772,9.57999 l -7.43533,17.26764 15.50145,36.54984 19.40836,-52.93439 c 0.76088,-2.14465 1.89234,-5.29462 1.89234,-6.93465 0,-2.77149 -2.26687,-3.52843 -7.56149,-3.52843 l -1.50993,0 0,-3.78075 c 4.15527,0 8.31843,0.50463 12.47764,0.50463 3.78075,0 7.43534,-0.50463 11.21609,-0.50463 l 0,3.78075 -1.51388,0 c -3.78075,0 -5.92146,4.28537 -7.43534,8.19227 l -29.74528,77.88968 -4.41153,0 -16.88917,-39.44749 z" id="path140" style="fill:#004890;fill-opacity:1;stroke:none"/>
    <path d="m 497.42448,555.0411 c -0.0158,-4.07248 -2.34177,-4.13556 -5.57847,-4.21046 0,-0.50068 -0.004,-1.00137 -0.004,-1.50205 2.874,0.067 5.68097,0.13798 8.43276,0.14587 2.8188,0.0118 5.62972,-0.0394 8.68901,-0.0907 0,0.51251 0.004,1.02502 0.004,1.53753 -3.24064,0.0434 -5.57058,0.0867 -5.55876,4.18682 0.0315,9.81259 0.0631,19.62124 0.0907,29.42989 0.0158,4.10402 2.34177,4.30114 5.58636,4.56134 0.004,0.51251 0.004,1.02502 0.008,1.53753 -2.93708,-0.19318 -5.57453,-0.47309 -8.26324,-0.63078 -2.93707,-0.17741 -5.80713,-0.28385 -8.86642,-0.39424 0,-0.50463 -0.004,-1.00531 -0.004,-1.50599 3.2367,0.11827 5.56665,0.19318 5.55482,-3.87536 -0.0315,-9.72981 -0.0591,-19.45961 -0.0907,-29.18942 z m 0,0 c -0.0158,-4.07248 -2.34177,-4.13556 -5.57847,-4.21046 0,-0.50068 -0.004,-1.00137 -0.004,-1.50205 2.874,0.067 5.68097,0.13798 8.43276,0.14587 2.8188,0.0118 5.62972,-0.0394 8.68901,-0.0907 0,0.51251 0.004,1.02502 0.004,1.53753 -3.24064,0.0434 -5.57058,0.0867 -5.55876,4.18682 0.0315,9.81259 0.0631,19.62124 0.0907,29.42989 0.0158,4.10402 2.34177,4.30114 5.58636,4.56134 0.004,0.51251 0.004,1.02502 0.008,1.53753 -2.93708,-0.19318 -5.57453,-0.47309 -8.26324,-0.63078 -2.93707,-0.17741 -5.80713,-0.28385 -8.86642,-0.39424 0,-0.50463 -0.004,-1.00531 -0.004,-1.50599 3.2367,0.11827 5.56665,0.19318 5.55482,-3.87536 -0.0315,-9.72981 -0.0591,-19.45961 -0.0907,-29.18942 m -34.85932,24.02095 c 0.46914,0.0118 0.93829,0.0276 1.41137,0.0394 1.04474,4.22624 4.48249,8.44065 9.57211,8.65748 4.70721,0.20106 8.36574,-2.70053 8.35391,-7.21456 -0.0315,-10.63656 -18.12708,-7.97545 -18.15862,-21.15089 -0.0158,-7.21062 5.59819,-10.95589 13.06112,-10.95589 2.49553,0.004 5.00683,0.52434 7.45111,0.86733 0.3351,2.44033 0.6702,4.88461 1.00136,7.32889 -0.46914,-0.004 -0.93828,-0.0118 -1.40743,-0.0158 -0.68203,-4.00941 -3.49295,-6.35907 -7.90448,-6.37089 -4.64018,-0.0118 -7.32495,3.07111 -7.31706,7.17908 0.0276,10.4276 18.86036,7.9163 18.89584,21.15877 0.0237,7.48659 -7.12388,11.28705 -14.34633,10.96377 -3.18545,-0.13798 -6.48522,-0.95011 -9.36711,-2.2787 -0.41395,-2.73995 -0.83184,-5.47597 -1.24579,-8.20804 z m 0,0 c 0.46914,0.0118 0.93829,0.0276 1.41137,0.0394 1.04474,4.22624 4.48249,8.44065 9.57211,8.65748 4.70721,0.20106 8.36574,-2.70053 8.35391,-7.21456 -0.0315,-10.63656 -18.12708,-7.97545 -18.15862,-21.15089 -0.0158,-7.21062 5.59819,-10.95589 13.06112,-10.95589 2.49553,0.004 5.00683,0.52434 7.45111,0.86733 0.3351,2.44033 0.6702,4.88461 1.00136,7.32889 -0.46914,-0.004 -0.93828,-0.0118 -1.40743,-0.0158 -0.68203,-4.00941 -3.49295,-6.35907 -7.90448,-6.37089 -4.64018,-0.0118 -7.32495,3.07111 -7.31706,7.17908 0.0276,10.4276 18.86036,7.9163 18.89584,21.15877 0.0237,7.48659 -7.12388,11.28705 -14.34633,10.96377 -3.18545,-0.13798 -6.48522,-0.95011 -9.36711,-2.2787 -0.41395,-2.73995 -0.83184,-5.47597 -1.24579,-8.20804 m -29.59357,-28.09411 c -1.5257,0 -2.57043,0.16558 -3.66641,0.32722 0,5.35376 0.008,10.70357 0.0118,16.05339 0.92252,0.16952 2.20379,0.29173 3.24458,0.30356 7.52207,0.071 10.45915,-4.35633 10.45126,-8.33814 -0.008,-4.79788 -2.82669,-8.33814 -10.04125,-8.34603 z m -3.65065,18.41094 c 0.004,4.23806 0.008,8.47612 0.0118,12.71418 0.004,3.83594 2.33389,3.91873 5.57453,4.02912 0,0.47703 0.004,0.95011 0.004,1.42714 -2.93707,-0.0512 -5.57453,-0.19712 -8.26323,-0.22865 -2.94102,-0.0394 -5.8229,-0.008 -8.88614,0.0197 0,-0.47309 0,-0.94618 0,-1.4232 3.06324,0.18135 5.57848,-0.4928 5.57454,-3.61123 -0.008,-9.24883 -0.0158,-18.49372 -0.0237,-27.74255 -0.004,-3.82412 -2.326,-3.87931 -5.57059,-3.93844 l 0,-1.4232 c 3.36286,0.0591 6.29599,0.11827 9.2922,0.12221 2.1486,0 4.28143,-0.11433 8.20016,-0.11039 11.54724,0.004 14.1295,5.88204 14.13739,9.82048 0.008,4.71115 -3.89902,8.14497 -8.67325,9.35134 5.58242,7.39197 8.53132,11.90205 11.16878,14.6223 1.95936,2.05398 3.80046,3.59939 6.92282,3.69795 0,0.48492 0,0.96983 0.004,1.4508 -1.53359,-0.0473 -3.06324,-0.205 -4.58894,-0.25231 -1.71888,-0.0513 -3.49689,-0.0434 -5.20394,-0.0394 -5.58242,-5.68097 -9.69827,-12.18985 -14.11374,-18.43853 -1.85292,-0.0158 -3.71372,-0.0315 -5.56665,-0.0473 z m 3.65065,-18.41094 c -1.5257,0 -2.57043,0.16558 -3.66641,0.32722 0,5.35376 0.008,10.70357 0.0118,16.05339 0.92252,0.16952 2.20379,0.29173 3.24458,0.30356 7.52207,0.071 10.45915,-4.35633 10.45126,-8.33814 -0.008,-4.79788 -2.82669,-8.33814 -10.04125,-8.34603 m -3.65065,18.41094 c 0.004,4.23806 0.008,8.47612 0.0118,12.71418 0.004,3.83594 2.33389,3.91873 5.57453,4.02912 0,0.47703 0.004,0.95011 0.004,1.42714 -2.93707,-0.0512 -5.57453,-0.19712 -8.26323,-0.22865 -2.94102,-0.0394 -5.8229,-0.008 -8.88614,0.0197 0,-0.47309 0,-0.94618 0,-1.4232 3.06324,0.18135 5.57848,-0.4928 5.57454,-3.61123 -0.008,-9.24883 -0.0158,-18.49372 -0.0237,-27.74255 -0.004,-3.82412 -2.326,-3.87931 -5.57059,-3.93844 l 0,-1.4232 c 3.36286,0.0591 6.29599,0.11827 9.2922,0.12221 2.1486,0 4.28143,-0.11433 8.20016,-0.11039 11.54724,0.004 14.1295,5.88204 14.13739,9.82048 0.008,4.71115 -3.89902,8.14497 -8.67325,9.35134 5.58242,7.39197 8.53132,11.90205 11.16878,14.6223 1.95936,2.05398 3.80046,3.59939 6.92282,3.69795 0,0.48492 0,0.96983 0.004,1.4508 -1.53359,-0.0473 -3.06324,-0.205 -4.58894,-0.25231 -1.71888,-0.0513 -3.49689,-0.0434 -5.20394,-0.0394 -5.58242,-5.68097 -9.69827,-12.18985 -14.11374,-18.43853 -1.85292,-0.0158 -3.71372,-0.0315 -5.56665,-0.0473 m -37.38958,-2.88977 c 2.69265,-0.0118 5.3853,-0.0237 8.07401,-0.0276 4.95952,-0.0118 4.95952,-3.44958 5.14086,-4.69932 l 1.22609,0 c -0.12616,1.19849 -0.24443,4.14345 -0.24443,6.10675 0,1.75042 0.3075,4.32086 0.24048,6.06339 -0.40606,0 -0.81213,0 -1.22214,0 0,-5.23943 -1.95542,-5.24337 -6.66657,-5.2276 -2.18408,0.004 -4.36816,0.0118 -6.5483,0.0276 -0.004,3.09871 -0.008,6.19742 -0.008,9.30008 -0.004,6.07521 0.24048,7.58909 6.30387,7.54966 1.26551,-0.004 2.53101,-0.0118 3.79257,-0.0158 6.0082,-0.28779 8.70479,-0.98165 11.08599,-6.82426 0.48885,0.0749 0.97771,0.14981 1.46262,0.22471 -0.96982,2.72813 -1.8884,5.50751 -2.49947,8.34603 -6.12646,-0.0197 -12.24899,-0.11039 -18.37545,-0.0552 -4.53374,0.0394 -9.06748,0.0986 -13.5894,0.28385 0,-0.47703 0,-0.95406 0,-1.43109 5.32616,-0.0867 5.81502,-0.958 5.81896,-6.27627 0.008,-8.10554 0.0158,-16.21503 0.0237,-24.32057 0.008,-4.49432 -0.97377,-4.71115 -5.79925,-4.86884 0,-0.47703 0,-0.95406 0,-1.43109 4.09219,0.11039 8.25141,0.11039 12.35149,0.10645 5.86232,-0.004 11.6734,-0.004 17.5988,-0.11827 0,2.71236 0.004,5.42472 0.004,8.13708 -0.40606,0.0907 -0.81213,0.18135 -1.2182,0.27202 -0.91857,-5.12904 -3.6743,-6.66263 -9.78893,-6.66263 -2.3812,0.004 -4.76635,0.004 -7.15149,0.008 -0.004,5.17635 -0.008,10.3527 -0.0118,15.53299 z m 0,0 c 2.69265,-0.0118 5.3853,-0.0237 8.07401,-0.0276 4.95952,-0.0118 4.95952,-3.44958 5.14086,-4.69932 l 1.22609,0 c -0.12616,1.19849 -0.24443,4.14345 -0.24443,6.10675 0,1.75042 0.3075,4.32086 0.24048,6.06339 -0.40606,0 -0.81213,0 -1.22214,0 0,-5.23943 -1.95542,-5.24337 -6.66657,-5.2276 -2.18408,0.004 -4.36816,0.0118 -6.5483,0.0276 -0.004,3.09871 -0.008,6.19742 -0.008,9.30008 -0.004,6.07521 0.24048,7.58909 6.30387,7.54966 1.26551,-0.004 2.53101,-0.0118 3.79257,-0.0158 6.0082,-0.28779 8.70479,-0.98165 11.08599,-6.82426 0.48885,0.0749 0.97771,0.14981 1.46262,0.22471 -0.96982,2.72813 -1.8884,5.50751 -2.49947,8.34603 -6.12646,-0.0197 -12.24899,-0.11039 -18.37545,-0.0552 -4.53374,0.0394 -9.06748,0.0986 -13.5894,0.28385 0,-0.47703 0,-0.95406 0,-1.43109 5.32616,-0.0867 5.81502,-0.958 5.81896,-6.27627 0.008,-8.10554 0.0158,-16.21503 0.0237,-24.32057 0.008,-4.49432 -0.97377,-4.71115 -5.79925,-4.86884 0,-0.47703 0,-0.95406 0,-1.43109 4.09219,0.11039 8.25141,0.11039 12.35149,0.10645 5.86232,-0.004 11.6734,-0.004 17.5988,-0.11827 0,2.71236 0.004,5.42472 0.004,8.13708 -0.40606,0.0907 -0.81213,0.18135 -1.2182,0.27202 -0.91857,-5.12904 -3.6743,-6.66263 -9.78893,-6.66263 -2.3812,0.004 -4.76635,0.004 -7.15149,0.008 -0.004,5.17635 -0.008,10.3527 -0.0118,15.53299 m -46.49331,-0.39858 c -1.51782,-3.5718 -3.28401,-7.21062 -4.67961,-10.87309 -1.39955,-3.38257 -2.37726,-4.45884 -6.41032,-4.44307 0,-0.4928 0,-0.98559 0.004,-1.47839 2.87399,0.0513 5.74799,0.1025 8.62199,0.0946 2.56649,-0.004 5.2,-0.12616 7.76255,-0.13405 -0.004,0.48492 -0.004,0.97377 -0.004,1.45869 -0.91857,0.0631 -1.77407,0.0631 -2.62957,0.1774 -0.85155,0.0591 -1.59272,0.51251 -1.59272,1.35618 -0.004,1.86081 3.22487,8.61805 3.89113,10.22261 2.69659,6.34723 5.39712,12.65111 8.09766,18.9195 1.55724,-3.70979 3.11448,-7.4038 4.67172,-11.08599 1.47051,-3.63093 3.19728,-7.19091 4.48644,-10.79819 0.61107,-1.77013 1.90417,-4.48249 1.90811,-6.30781 0.004,-2.59409 -2.44822,-2.42063 -4.64807,-2.52707 0,-0.47703 0.004,-0.958 0.004,-1.43897 2.38514,0.0552 4.83336,0.10644 7.21456,0.10644 1.90023,-0.004 3.78863,-0.0631 5.68492,-0.12221 0,0.47703 0,0.95406 0,1.43109 -2.07764,0.004 -3.24064,0.8279 -4.10008,2.15254 -0.36664,0.59924 -4.54557,10.16741 -4.66384,10.4552 -3.74526,8.48401 -7.49447,17.0311 -11.24762,25.66492 -0.75299,0.0237 -1.50993,0.0512 -2.26687,0.0749 -3.37074,-7.57726 -6.73753,-15.20577 -10.10433,-22.90525 z m 0,0 c -1.51782,-3.5718 -3.28401,-7.21062 -4.67961,-10.87309 -1.39955,-3.38257 -2.37726,-4.45884 -6.41032,-4.44307 0,-0.4928 0,-0.98559 0.004,-1.47839 2.87399,0.0513 5.74799,0.1025 8.62199,0.0946 2.56649,-0.004 5.2,-0.12616 7.76255,-0.13405 -0.004,0.48492 -0.004,0.97377 -0.004,1.45869 -0.91857,0.0631 -1.77407,0.0631 -2.62957,0.1774 -0.85155,0.0591 -1.59272,0.51251 -1.59272,1.35618 -0.004,1.86081 3.22487,8.61805 3.89113,10.22261 2.69659,6.34723 5.39712,12.65111 8.09766,18.9195 1.55724,-3.70979 3.11448,-7.4038 4.67172,-11.08599 1.47051,-3.63093 3.19728,-7.19091 4.48644,-10.79819 0.61107,-1.77013 1.90417,-4.48249 1.90811,-6.30781 0.004,-2.59409 -2.44822,-2.42063 -4.64807,-2.52707 0,-0.47703 0.004,-0.958 0.004,-1.43897 2.38514,0.0552 4.83336,0.10644 7.21456,0.10644 1.90023,-0.004 3.78863,-0.0631 5.68492,-0.12221 0,0.47703 0,0.95406 0,1.43109 -2.07764,0.004 -3.24064,0.8279 -4.10008,2.15254 -0.36664,0.59924 -4.54557,10.16741 -4.66384,10.4552 -3.74526,8.48401 -7.49447,17.0311 -11.24762,25.66492 -0.75299,0.0237 -1.50993,0.0512 -2.26687,0.0749 -3.37074,-7.57726 -6.73753,-15.20577 -10.10433,-22.90525 m -24.6076,-11.09075 c 0.0118,-4.04489 -2.31417,-4.08825 -5.55481,-4.13162 0,-0.50462 0.004,-1.01319 0.004,-1.51782 2.87794,0.0513 5.68886,0.10251 8.44064,0.0946 2.80698,-0.008 5.62184,-0.0789 8.67719,-0.14587 0,0.49674 -0.004,0.98954 -0.004,1.48628 -3.2367,0.071 -5.56271,0.13798 -5.57453,4.15527 -0.0276,9.60365 -0.0552,19.21124 -0.0828,28.81883 -0.0118,4.02123 2.31023,3.95815 5.55087,3.86354 0,0.49279 0,0.98953 -0.004,1.48233 -2.93708,0.14193 -5.5627,0.16164 -8.25535,0.30751 -2.94102,0.15375 -5.81108,0.37847 -8.87431,0.61107 0,-0.50463 0.004,-1.00925 0.004,-1.51782 3.24459,-0.24048 5.57059,-0.42183 5.58242,-4.46672 0.0315,-9.67855 0.0631,-19.36105 0.0907,-29.0396 z m 0,0 c 0.0118,-4.04489 -2.31417,-4.08825 -5.55481,-4.13162 0,-0.50462 0.004,-1.01319 0.004,-1.51782 2.87794,0.0513 5.68886,0.10251 8.44064,0.0946 2.80698,-0.008 5.62184,-0.0789 8.67719,-0.14587 0,0.49674 -0.004,0.98954 -0.004,1.48628 -3.2367,0.071 -5.56271,0.13798 -5.57453,4.15527 -0.0276,9.60365 -0.0552,19.21124 -0.0828,28.81883 -0.0118,4.02123 2.31023,3.95815 5.55087,3.86354 0,0.49279 0,0.98953 -0.004,1.48233 -2.93708,0.14193 -5.5627,0.16164 -8.25535,0.30751 -2.94102,0.15375 -5.81108,0.37847 -8.87431,0.61107 0,-0.50463 0.004,-1.00925 0.004,-1.51782 3.24459,-0.24048 5.57059,-0.42183 5.58242,-4.46672 0.0315,-9.67855 0.0631,-19.36105 0.0907,-29.0396 m -13.93279,36.06654 c -0.46914,0.0315 -0.93828,0.0591 -1.40743,0.0907 -10.62472,-10.59713 -21.23762,-21.62792 -31.8584,-33.34468 -0.0197,7.75072 -0.0434,15.50539 -0.0631,23.25612 -0.0237,8.61805 0.6426,10.29356 7.23821,9.76528 -0.004,0.53223 -0.004,1.06839 -0.008,1.60061 -2.68476,0.22077 -5.42866,0.33116 -8.11737,0.55982 -2.69264,0.2326 -5.4326,0.54405 -8.12131,0.84761 0,-0.54799 0.004,-1.09992 0.004,-1.65186 3.72161,-0.32721 6.53253,-0.57164 6.55619,-8.51555 0.0236,-8.39727 0.0434,-16.79061 0.067,-25.18394 0.0158,-5.38136 -2.24322,-7.30918 -7.50236,-7.26976 0.004,-0.55193 0.004,-1.10387 0.004,-1.6558 1.90023,0.0552 3.72556,0.11433 5.62578,0.1025 1.65186,-0.008 3.35892,-0.14587 5.01077,-0.15375 2.49948,3.78863 8.16074,9.38287 15.10722,16.78273 5.17635,5.54299 10.90858,11.18848 15.05202,15.34375 0.0237,-7.84928 0.0473,-15.70251 0.0749,-23.5518 0.0158,-5.44049 -1.26156,-7.0884 -7.3762,-7.116 0.004,-0.52039 0.004,-1.03685 0.004,-1.55724 2.80698,0.0512 5.68492,0.1025 8.4919,0.0907 2.38908,-0.008 4.71115,-0.13798 7.10023,-0.14587 -0.004,0.50463 -0.004,1.0132 -0.004,1.52176 -3.73738,0.0197 -5.75194,0.32722 -5.77165,6.10676 -0.0355,11.35801 -0.071,22.71996 -0.10645,34.07796 z m 0,0 c -0.46914,0.0315 -0.93828,0.0591 -1.40743,0.0907 -10.62472,-10.59713 -21.23762,-21.62792 -31.8584,-33.34468 -0.0197,7.75072 -0.0434,15.50539 -0.0631,23.25612 -0.0237,8.61805 0.6426,10.29356 7.23821,9.76528 -0.004,0.53223 -0.004,1.06839 -0.008,1.60061 -2.68476,0.22077 -5.42866,0.33116 -8.11737,0.55982 -2.69264,0.2326 -5.4326,0.54405 -8.12131,0.84761 0,-0.54799 0.004,-1.09992 0.004,-1.65186 3.72161,-0.32721 6.53253,-0.57164 6.55619,-8.51555 0.0236,-8.39727 0.0434,-16.79061 0.067,-25.18394 0.0158,-5.38136 -2.24322,-7.30918 -7.50236,-7.26976 0.004,-0.55193 0.004,-1.10387 0.004,-1.6558 1.90023,0.0552 3.72556,0.11433 5.62578,0.1025 1.65186,-0.008 3.35892,-0.14587 5.01077,-0.15375 2.49948,3.78863 8.16074,9.38287 15.10722,16.78273 5.17635,5.54299 10.90858,11.18848 15.05202,15.34375 0.0237,-7.84928 0.0473,-15.70251 0.0749,-23.5518 0.0158,-5.44049 -1.26156,-7.0884 -7.3762,-7.116 0.004,-0.52039 0.004,-1.03685 0.004,-1.55724 2.80698,0.0512 5.68492,0.1025 8.4919,0.0907 2.38908,-0.008 4.71115,-0.13798 7.10023,-0.14587 -0.004,0.50463 -0.004,1.0132 -0.004,1.52176 -3.73738,0.0197 -5.75194,0.32722 -5.77165,6.10676 -0.0355,11.35801 -0.071,22.71996 -0.10645,34.07796 m -44.61423,-39.95221 c -4.88856,0.0355 -4.84125,2.54678 -4.85702,10.4 -0.0158,6.18166 -0.0276,12.35938 -0.0434,18.53709 -0.0197,8.7245 -5.21971,15.75377 -15.94694,16.96408 -10.06096,1.14329 -16.09281,-3.61911 -16.26628,-15.39895 0.004,-8.39728 0.008,-16.79456 0.0118,-25.19578 0,-4.82547 -2.31812,-4.87278 -5.55876,-4.90432 l 0,-1.82138 c 2.87006,0.0552 5.68492,0.1025 8.4367,0.0828 2.80698,-0.0158 5.6179,-0.1025 8.67325,-0.18529 0,0.58347 0,1.16694 0,1.75041 -3.2367,0.0946 -5.56271,0.18135 -5.56665,4.95164 -0.008,7.71919 -0.0158,15.43443 -0.0197,23.15362 -0.008,8.12919 2.36543,15.69857 11.87446,14.67749 10.12404,-1.05655 11.12147,-9.38287 11.12935,-13.85353 0.0118,-6.15406 0.0276,-12.31207 0.0394,-18.46613 0.0237,-10.62078 -0.34299,-10.4276 -5.78348,-10.57347 0,-0.56771 0.004,-1.13541 0.004,-1.70706 2.56649,0.0552 5.13299,0.10251 7.70342,0.0907 2.0737,-0.0118 4.08825,-0.14981 6.17377,-0.16164 0,0.55588 -0.004,1.10781 -0.004,1.65975 z m 0,0 c -4.88856,0.0355 -4.84125,2.54678 -4.85702,10.4 -0.0158,6.18166 -0.0276,12.35938 -0.0434,18.53709 -0.0197,8.7245 -5.21971,15.75377 -15.94694,16.96408 -10.06096,1.14329 -16.09281,-3.61911 -16.26628,-15.39895 0.004,-8.39728 0.008,-16.79456 0.0118,-25.19578 0,-4.82547 -2.31812,-4.87278 -5.55876,-4.90432 l 0,-1.82138 c 2.87006,0.0552 5.68492,0.1025 8.4367,0.0828 2.80698,-0.0158 5.6179,-0.1025 8.67325,-0.18529 0,0.58347 0,1.16694 0,1.75041 -3.2367,0.0946 -5.56271,0.18135 -5.56665,4.95164 -0.008,7.71919 -0.0158,15.43443 -0.0197,23.15362 -0.008,8.12919 2.36543,15.69857 11.87446,14.67749 10.12404,-1.05655 11.12147,-9.38287 11.12935,-13.85353 0.0118,-6.15406 0.0276,-12.31207 0.0394,-18.46613 0.0237,-10.62078 -0.34299,-10.4276 -5.78348,-10.57347 0,-0.56771 0.004,-1.13541 0.004,-1.70706 2.56649,0.0552 5.13299,0.10251 7.70342,0.0907 2.0737,-0.0118 4.08825,-0.14981 6.17377,-0.16164 0,0.55588 -0.004,1.10781 -0.004,1.65975" id="path212" style="fill:#004890;fill-opacity:1;stroke:none"/>
    <path d="m 578.08136,589.97858 c 0.008,4.70721 2.31813,5.0226 5.55088,5.44049 0.004,0.59136 0.004,1.18272 0.004,1.77013 -3.04746,-0.41 -5.85049,-0.78453 -8.65747,-1.08415 -2.7439,-0.29568 -5.55088,-0.52828 -8.41305,-0.75694 0,-0.57164 -0.004,-1.13935 -0.004,-1.70705 3.23275,0.2602 5.55087,0.43366 5.54299,-4.22229 -0.008,-5.3577 -0.0158,-10.71935 -0.0236,-16.07705 -4.26172,-6.6232 -8.53132,-13.05323 -12.80092,-19.32556 -1.78196,-2.669 -2.08553,-2.5389 -5.69281,-2.88977 0,-0.55587 -0.004,-1.10781 -0.004,-1.66368 1.163,0.071 5.68492,0.15769 8.49584,0.17346 2.50735,0.0118 4.95163,-0.1025 7.46293,-0.0907 0,0.57164 0,1.14723 0,1.71887 -0.97771,-0.008 -3.42199,-0.0276 -3.42199,1.34436 0,0.78847 0.85944,2.30629 2.02244,4.10796 2.85823,4.38788 5.71646,8.85065 8.57075,13.40411 2.66111,-3.86748 5.32616,-7.80592 7.99121,-11.81533 0.73328,-1.1354 2.37726,-3.29583 2.37331,-4.88067 0,-1.9909 -1.21819,-2.00273 -4.33662,-2.03427 0,-0.58741 0,-1.17877 0,-1.77013 2.32601,0.0828 4.70327,0.16558 7.03321,0.18135 1.64398,0.008 3.29584,-0.11827 5.00683,-0.10644 l 0,1.81744 c -2.56255,0.0434 -3.72949,1.90811 -5.0699,3.95815 -3.88719,5.86232 -7.77044,11.57484 -11.64975,17.14148 0.004,5.78742 0.0118,11.57879 0.0197,17.3662 z m 0,0 c 0.008,4.70721 2.31813,5.0226 5.55088,5.44049 0.004,0.59136 0.004,1.18272 0.004,1.77013 -3.04746,-0.41 -5.85049,-0.78453 -8.65747,-1.08415 -2.7439,-0.29568 -5.55088,-0.52828 -8.41305,-0.75694 0,-0.57164 -0.004,-1.13935 -0.004,-1.70705 3.23275,0.2602 5.55087,0.43366 5.54299,-4.22229 -0.008,-5.3577 -0.0158,-10.71935 -0.0236,-16.07705 -4.26172,-6.6232 -8.53132,-13.05323 -12.80092,-19.32556 -1.78196,-2.669 -2.08553,-2.5389 -5.69281,-2.88977 0,-0.55587 -0.004,-1.10781 -0.004,-1.66368 1.163,0.071 5.68492,0.15769 8.49584,0.17346 2.50735,0.0118 4.95163,-0.1025 7.46293,-0.0907 0,0.57164 0,1.14723 0,1.71887 -0.97771,-0.008 -3.42199,-0.0276 -3.42199,1.34436 0,0.78847 0.85944,2.30629 2.02244,4.10796 2.85823,4.38788 5.71646,8.85065 8.57075,13.40411 2.66111,-3.86748 5.32616,-7.80592 7.99121,-11.81533 0.73328,-1.1354 2.37726,-3.29583 2.37331,-4.88067 0,-1.9909 -1.21819,-2.00273 -4.33662,-2.03427 0,-0.58741 0,-1.17877 0,-1.77013 2.32601,0.0828 4.70327,0.16558 7.03321,0.18135 1.64398,0.008 3.29584,-0.11827 5.00683,-0.10644 l 0,1.81744 c -2.56255,0.0434 -3.72949,1.90811 -5.0699,3.95815 -3.88719,5.86232 -7.77044,11.57484 -11.64975,17.14148 0.004,5.78742 0.0118,11.57879 0.0197,17.3662 m -28.33001,-32.10839 c -0.55193,-0.0118 -1.09992,-0.0237 -1.65185,-0.0355 -0.18924,-3.4141 -0.0158,-5.6928 -4.90433,-5.73617 -3.09871,-0.0315 -6.19743,-0.0591 -9.2922,-0.0867 0.0315,11.47628 0.067,22.95256 0.0986,34.4249 0.0118,4.30902 2.33783,4.55345 5.57847,4.87673 0,0.5401 0.004,1.08021 0.004,1.62032 -2.93314,-0.24837 -5.56271,-0.58742 -8.24747,-0.80031 -2.93313,-0.2326 -5.80713,-0.39029 -8.85854,-0.56376 -0.004,-0.52039 -0.004,-1.04473 -0.008,-1.56907 3.23669,0.17347 5.55876,0.29174 5.54693,-3.97786 -0.0355,-11.35407 -0.067,-22.70813 -0.1025,-34.0622 -2.66899,-0.0237 -5.33405,-0.0473 -8.00304,-0.067 -5.50751,-0.0434 -5.74405,1.44685 -6.77302,5.29856 -0.52827,-0.0118 -1.05655,-0.0197 -1.58483,-0.0276 0.21289,-3.13814 0.42577,-6.28416 0.63866,-9.43019 0.40607,0.004 0.81608,0.004 1.2182,0.004 0.68203,1.60061 2.32995,1.67157 3.85959,1.67551 9.25278,0.0355 18.50555,0.0789 27.75439,0.12221 2.19985,0.0118 3.72555,-0.54404 3.96998,-1.75041 0.42577,0 0.85155,0 1.28127,0 -0.17346,3.36679 -0.35087,6.7257 -0.52434,10.08461 z m 0,0 c -0.55193,-0.0118 -1.09992,-0.0237 -1.65185,-0.0355 -0.18924,-3.4141 -0.0158,-5.6928 -4.90433,-5.73617 -3.09871,-0.0315 -6.19743,-0.0591 -9.2922,-0.0867 0.0315,11.47628 0.067,22.95256 0.0986,34.4249 0.0118,4.30902 2.33783,4.55345 5.57847,4.87673 0,0.5401 0.004,1.08021 0.004,1.62032 -2.93314,-0.24837 -5.56271,-0.58742 -8.24747,-0.80031 -2.93313,-0.2326 -5.80713,-0.39029 -8.85854,-0.56376 -0.004,-0.52039 -0.004,-1.04473 -0.008,-1.56907 3.23669,0.17347 5.55876,0.29174 5.54693,-3.97786 -0.0355,-11.35407 -0.067,-22.70813 -0.1025,-34.0622 -2.66899,-0.0237 -5.33405,-0.0473 -8.00304,-0.067 -5.50751,-0.0434 -5.74405,1.44685 -6.77302,5.29856 -0.52827,-0.0118 -1.05655,-0.0197 -1.58483,-0.0276 0.21289,-3.13814 0.42577,-6.28416 0.63866,-9.43019 0.40607,0.004 0.81608,0.004 1.2182,0.004 0.68203,1.60061 2.32995,1.67157 3.85959,1.67551 9.25278,0.0355 18.50555,0.0789 27.75439,0.12221 2.19985,0.0118 3.72555,-0.54404 3.96998,-1.75041 0.42577,0 0.85155,0 1.28127,0 -0.17346,3.36679 -0.35087,6.7257 -0.52434,10.08461" id="path236" style="fill:#004890;fill-opacity:1;stroke:none"/>
    <path d="m 405.56692,608.42378 c -60.08587,-0.0197 -118.72489,6.98985 -157.69535,16.04945 l 319.55781,0 C 529.12912,615.15738 466.69359,608.4435 405.56692,608.42378" id="path248" style="fill:#fab93d;fill-opacity:1;fill-rule:nonzero;stroke:none"/>
  </g>
</svg>